<?xml version="1.0" encoding="utf-8"?>
<!-- Generator: Adobe Illustrator 19.2.1, SVG Export Plug-In . SVG Version: 6.00 Build 0)  -->
<svg version="1.1" id="Calque_1" xmlns="http://www.w3.org/2000/svg" xmlns:xlink="http://www.w3.org/1999/xlink" x="0px" y="0px"
	 viewBox="0 0 48 48" style="enable-background:new 0 0 48 48;" xml:space="preserve">
<style type="text/css">
	.st0{fill:#232323;}
	.st1{fill:#FFFFFF;}
	.st2{fill:#616161;}
	.st3{fill:#EFEFEF;}
</style>
<polygon class="st0" points="33,42 5,42 5,4 24,4 33,13 "/>
<polygon class="st1" points="31.5,14 23,14 23,5.5 "/>
<rect x="38.3" y="34.8" transform="matrix(0.7071 -0.7071 0.7071 0.7071 -17.2345 40.0576)" class="st2" width="2.8" height="12"/>
<circle class="st3" cx="28" cy="29" r="11"/>
<circle class="st0" cx="28" cy="29" r="9"/>
<rect x="39.5" y="37.6" transform="matrix(0.7071 -0.7071 0.7071 0.7071 -17.6906 41.2219)" class="st0" width="2.8" height="8.7"/>
<g>
	<path class="st1" d="M30,31h-9.7c0.4,1.6,1.3,3,2.5,4H30V31z"/>
	<path class="st1" d="M20.3,27H30v-4h-7.3C21.5,24,20.7,25.4,20.3,27z"/>
	<path class="st1" d="M20.1,20H11v2h7.3C18.8,21.3,19.4,20.6,20.1,20z"/>
	<path class="st1" d="M17.1,24H11v2h5.4C16.6,25.3,16.8,24.6,17.1,24z"/>
	<path class="st1" d="M16,29c0-0.3,0-0.7,0.1-1H11v2h5.1C16,29.7,16,29.3,16,29z"/>
	<path class="st1" d="M16.4,32H11v2h6.1C16.8,33.4,16.6,32.7,16.4,32z"/>
</g>
</svg>
